<?xml version="1.0" encoding="utf-8"?>
<!-- Generator: Adobe Illustrator 15.0.2, SVG Export Plug-In . SVG Version: 6.00 Build 0)  -->
<!DOCTYPE svg PUBLIC "-//W3C//DTD SVG 1.1//EN" "http://www.w3.org/Graphics/SVG/1.1/DTD/svg11.dtd">
<svg version="1.1" id="Layer_1" xmlns="http://www.w3.org/2000/svg" xmlns:xlink="http://www.w3.org/1999/xlink" x="0px" y="0px"
	 width="512px" height="483.572px" viewBox="0 0 512 483.572" enable-background="new 0 0 512 483.572" xml:space="preserve">
<g>
	<path d="M435.299,366.442c0,1.71,1.408,3.117,3.135,3.117s3.117-1.407,3.117-3.117c0-1.727-1.391-3.118-3.117-3.118
		S435.299,364.716,435.299,366.442z M366.342,437.596c0,3.436,2.782,6.218,6.201,6.218c3.437,0.017,6.219-2.766,6.235-6.201
		c0,0,0,0,0-0.017c0-3.437-2.782-6.219-6.201-6.219c-3.453,0-6.235,2.766-6.235,6.201V437.596z M273.382,474.22
		c0,5.162,4.174,9.353,9.319,9.353c5.163,0,9.354-4.157,9.354-9.319c0-0.017,0-0.017,0-0.033c0-5.146-4.157-9.337-9.32-9.354
		c-5.162,0-9.353,4.19-9.353,9.336C273.382,474.22,273.382,474.22,273.382,474.22z M173.315,469.325
		c0,6.855,5.564,12.42,12.429,12.42c6.863,0,12.429-5.564,12.429-12.42c0-6.872-5.565-12.438-12.429-12.438
		C178.88,456.888,173.315,462.453,173.315,469.325z M84.546,423.767c0,8.582,6.956,15.555,15.546,15.555
		c8.582,0,15.555-6.956,15.555-15.538c0-0.017,0-0.017,0-0.017c0.009-8.582-6.956-15.555-15.546-15.555
		c-8.582,0-15.547,6.939-15.555,15.538V423.767z M23.064,346.328c0,10.309,8.355,18.673,18.663,18.673
		c10.317,0,18.682-8.348,18.689-18.673l0,0c0-10.325-8.355-18.689-18.672-18.689c-10.309,0-18.673,8.364-18.681,18.656
		C23.064,346.312,23.064,346.312,23.064,346.328z M0,251.231c-0.008,12.026,9.73,21.765,21.748,21.781
		c12.026,0,21.773-9.738,21.773-21.765c0-0.009,0-0.009,0-0.017c0.009-12.019-9.73-21.765-21.757-21.773
		C9.747,229.458,0,239.196,0,251.215C0,251.223,0,251.223,0,251.231z M18.982,156.763c-0.008,13.745,11.139,24.892,24.883,24.892
		s24.891-11.139,24.891-24.883v-0.009c0-13.744-11.138-24.891-24.883-24.891c-13.744,0-24.891,11.138-24.891,24.883V156.763z
		 M75.93,80.59c0,15.471,12.538,28.017,28.009,28.017c15.472,0,28.009-12.537,28.018-28.008V80.59
		c0-15.471-12.538-28.017-28.009-28.017C88.477,52.564,75.93,65.11,75.93,80.581V80.59z M159.554,36.959
		c-0.009,17.181,13.903,31.11,31.084,31.118c17.173,0.009,31.11-13.912,31.118-31.084c0-0.017,0-0.025,0-0.034
		c0.009-17.181-13.912-31.109-31.084-31.118c-17.181-0.008-31.109,13.913-31.118,31.084
		C159.554,36.942,159.554,36.951,159.554,36.959z M253.469,34.244c-0.008,18.907,15.304,34.235,34.194,34.252
		c18.906,0.009,34.243-15.303,34.261-34.202c0-0.017,0-0.033,0-0.05c0-18.899-15.304-34.236-34.194-34.244
		c-18.907-0.017-34.244,15.295-34.261,34.202C253.469,34.219,253.469,34.228,253.469,34.244z M339.456,72.93
		c0,20.617,16.694,37.328,37.312,37.337c20.6,0.008,37.312-16.695,37.328-37.304c0-0.008,0-0.017,0-0.033
		c0.017-20.6-16.695-37.319-37.295-37.328c-20.616-0.008-37.328,16.694-37.345,37.303C339.456,72.913,339.456,72.922,339.456,72.93z
		 M400.568,145.608c0,22.335,18.103,40.438,40.43,40.445c22.326,0,40.429-18.103,40.445-40.429c0-0.009,0-0.017,0-0.017
		c0-22.335-18.086-40.446-40.429-40.446c-22.344-0.008-40.446,18.095-40.446,40.43C400.568,145.6,400.568,145.6,400.568,145.608z
		 M424.873,239.732c0,24.062,19.511,43.572,43.563,43.572S512,263.794,512,239.732l0,0c0-24.061-19.511-43.562-43.563-43.562
		S424.873,215.672,424.873,239.732z"/>
</g>
</svg>
